# xmcd CD database file
#
# Track frame offsets:
#	150
#	16645
#	35512
#	51667
#	67505
#	85217
#	101137
#	120082
#	138500
#	157075
#	170935
#
# Disc length: 2515 seconds
#
# Revision: 4
# Processed by: cddbd v1.5.2PL0 Copyright (c) Steve Scherf et al.
# Submitted via: CDex 1.40Release
#
DISCID=8d09d10b
DTITLE=Charlie Major - Everything's Alright
DYEAR=1997
DGENRE=Country
TTITLE0=I'm Feeling Kind Of Lucky Tonight
TTITLE1=Some Days Are Better
TTITLE2=You Can Trust In My Love
TTITLE3=Long Long Gone
TTITLE4=I Keep On Driving
TTITLE5=Thank The Lord for The Right Time
TTITLE6=Heaven Is
TTITLE7=St Valentines Day
TTITLE8=Alone In The Night
TTITLE9=Everything's Alright
TTITLE10=Where Does The Time Go
EXTD=YEAR: 1997 ID3G: 2
EXTT0=
EXTT1=
EXTT2=
EXTT3=
EXTT4=
EXTT5=
EXTT6=
EXTT7=
EXTT8=
EXTT9=
EXTT10=
PLAYORDER=
